<svg xmlns="http://www.w3.org/2000/svg" viewBox="0 0 512 512" aria-label="Gakugo icon" role="img">
  <path
    d="M70 205 C70 140 124 102 186 102 C242 102 287 134 297 186 C308 245 268 299 182 302 C168 315 145 330 112 338 C124 324 130 312 131 300 C93 288 70 252 70 205 Z"
    fill="#f7f7f7"
  />
  <path
    d="M238 171 C287 182 326 207 351 246 C376 206 414 182 464 171 L464 246 C418 252 382 279 351 333 C320 279 284 252 238 246 Z"
    fill="#f7f7f7"
  />
  <g fill="none" stroke="#171b22" stroke-linecap="round" stroke-linejoin="round">
    <path
      d="M118 313 C 74 299, 49 258, 49 205 C 49 128, 113 84, 186 84 C 224 84, 256 95, 282 115"
      stroke-width="20"
    />
    <path d="M120 312 C 119 329, 107 345, 83 359 C 105 357, 130 346, 144 327" stroke-width="14" />
    <path d="M223 138 C 292 151, 335 188, 351 247" stroke-width="19" />
    <path d="M351 247 C 373 188, 417 153, 469 142" stroke-width="19" />
    <path d="M238 169 L238 248" stroke-width="19" />
    <path d="M464 160 L464 248" stroke-width="19" />
    <path d="M238 248 C 280 253, 320 278, 351 333" stroke-width="19" />
    <path d="M351 333 C 381 280, 420 255, 464 248" stroke-width="19" />
  </g>
  <circle cx="424" cy="408" r="30" fill="#e21d22" />
</svg>
